<svg id="Layer_1" enable-background="new 0 0 512 512" height="512" viewBox="0 0 512 512" width="512" xmlns="http://www.w3.org/2000/svg"><g><g><g><g id="XMLID_814_"><g id="XMLID_815_"><g id="XMLID_816_"><g id="XMLID_817_"><g id="XMLID_818_"><g id="XMLID_819_"><g id="XMLID_820_"><g id="XMLID_821_"><g id="XMLID_823_"><g id="XMLID_824_"><g id="XMLID_825_"><g id="XMLID_827_"><g id="XMLID_828_"><g id="XMLID_829_"><g id="XMLID_830_"><circle cx="256" cy="256" fill="#ffe670" r="256"/></g></g></g></g></g></g></g></g></g></g></g></g></g></g></g></g></g><path d="m512 256c0-33.379-6.395-65.262-18.015-94.5l-68.5-68.5-43 12-42.938-12-24.005 98.958-76.296-76.696-93.399 35.761 62.61 62.658-50.394 26.82c-12.863-8.273-106.813-8.543-106.813 37 0 24.033 6.437 84.797 6.437 84.797l143.884 143.884c17.543 3.799 35.749 5.818 54.429 5.818 141.385 0 256-114.615 256-256z" fill="#fcd32b"/><g><g><g><path d="m113.52 384.091c-45.543 0-82.595-37.052-82.595-82.595s37.052-82.595 82.595-82.595 82.595 37.052 82.595 82.595-37.052 82.595-82.595 82.595zm0-135.19c-29.001 0-52.595 23.594-52.595 52.595s23.594 52.595 52.595 52.595 52.595-23.594 52.595-52.595-23.594-52.595-52.595-52.595z" fill="#4e7184"/></g><g><path d="m390.985 384.091c-45.543 0-82.595-37.052-82.595-82.595s37.052-82.595 82.595-82.595 82.595 37.052 82.595 82.595-37.052 82.595-82.595 82.595zm0-135.19c-29.001 0-52.595 23.594-52.595 52.595s23.594 52.595 52.595 52.595 52.595-23.594 52.595-52.595-23.594-52.595-52.595-52.595z" fill="#3d5d72"/></g><g><g><path d="m402.796 292.249-75.229-96.083 31.682-73.166h31.736v-30h-51.438l-39.377 90.938-79.082 4.479-20.588-49.226-27.679 11.57 18.607 44.485-83.099 91.53-.521.607c-4.239 5.201-5.278 12.283-2.713 18.482 2.565 6.2 8.305 10.477 14.979 11.162l.799.082 130.775-.608c.263.026.526.055.791.069.277.014.554.021.83.021 6.084 0 11.793-3.369 14.71-8.75l44.565-82.198 66.63 85.099zm-198.594-66.441 25.413 60.796-80.951.377zm50.631 43.339-21.475-51.376 50.893-2.882z" fill="#ff735c"/></g></g><g><g><path d="m327.57 196.17 31.68-73.17h31.74v-30h-51.44l-39.38 90.94-45.34 2.57v30.04l29.42-1.66-29.42 54.26v47.36c5.48-.51 10.48-3.75 13.15-8.67l44.56-82.2 66.63 85.1 23.63-18.49z" fill="#e85642"/></g></g><g><path d="m239.247 115.261c-3.929-3.109-8.817-4.759-13.824-4.932l-66.787-2.308c-16.997-.587-26.766 11.271-23.081 26.943 4.102 17.444 24.991 32.682 63.01 15.844 33.266-14.732 54.424-24.672 40.682-35.547z" fill="#4e7184"/></g></g><g><path d="m382.485 93h43v30h-43z" fill="#3d5d72"/></g></g></g></svg>