<svg id="Layer_1" enable-background="new 0 0 512 512" height="512" viewBox="0 0 512 512" width="512" xmlns="http://www.w3.org/2000/svg"><g><g id="XMLID_325_"><g><g id="XMLID_1719_"><g id="XMLID_1720_"><g id="XMLID_1721_"><g id="XMLID_1722_"><g id="XMLID_1723_"><g id="XMLID_1724_"><g id="XMLID_1725_"><g id="XMLID_1726_"><g id="XMLID_1757_"><g id="XMLID_1758_"><g id="XMLID_1759_"><g id="XMLID_1760_"><g id="XMLID_1761_"><g id="XMLID_1762_"><circle cx="256" cy="256" fill="#ff735c" r="256"/></g></g></g></g></g></g></g></g></g></g></g></g></g></g></g></g><path d="m512 256c0-32.673-6.132-63.911-17.29-92.641l-85.646-85.646-63.689-10.463-24.208-23.25-212.035 396.483 54.227 54.227c28.73 11.158 59.968 17.29 92.641 17.29 141.385 0 256-114.615 256-256z" fill="#e85642"/><g><path d="m378.78 448.903h-245.56c-21.376 0-38.704-17.329-38.704-38.704v-308.398c0-21.376 17.328-38.704 38.704-38.704h245.56c21.376 0 38.704 17.328 38.704 38.704v308.398c0 21.376-17.328 38.704-38.704 38.704z" fill="#3d5d72"/><path d="m417.48 101.8v308.4c0 21.37-17.32 38.7-38.7 38.7h-122.78v-385.8h122.78c21.38 0 38.7 17.33 38.7 38.7z" fill="#244654"/><path d="m99.548 126.219h312.903v258.659h-312.903z" fill="#fff7c5" transform="matrix(0 1 -1 0 511.549 -.452)"/><path d="m256 99.1h129.33v312.9h-129.33z" fill="#ffde94"/><path d="m215.452 19.382h81.097v130.333h-81.097z" fill="#00ceb4" transform="matrix(0 1 -1 0 340.549 -171.452)"/><path d="m256 44h65.17v81.1h-65.17z" fill="#00b2a1"/><g><g><path d="m176 169.776h80v30h-80z" fill="#4e7184"/></g><g><path d="m176 250.956h80v30h-80z" fill="#4e7184"/></g><g><path d="m176 332.135h80v30h-80z" fill="#4e7184"/></g></g><g fill="#00b2a1"><path d="m336.348 154.935-20.501 23.791-13.31-11.484-16.537 19.263 33.144 27.28 36.185-41.99z"/><path d="m336.348 236.53-20.501 23.791-13.31-11.483-16.537 19.263 33.144 27.28 36.185-41.991z"/><path d="m336.348 318.126-20.501 23.791-13.31-11.484-16.537 19.263 33.144 27.28 36.185-41.99z"/></g></g></g></svg>